<svg width="254" height="62" viewBox="0 0 254 62" fill="none" xmlns="http://www.w3.org/2000/svg">
<g clip-path="url(#clip0_1872_164)">
<path d="M68.5825 59.1605C67.8025 59.1605 67.4646 58.6655 67.3866 58.0403H67.3086C67.0226 58.8739 66.2687 59.3429 65.3067 59.3429C63.8509 59.3429 62.9929 58.5353 62.9929 57.2588C62.9929 55.9823 63.9289 55.2269 65.9307 55.2269H67.3086V54.5496C67.3086 53.5597 66.7626 53.0387 65.6707 53.0387C64.5788 53.0387 64.2928 53.4294 63.9028 54.0807L63.2529 53.4815C63.6169 52.7521 64.4488 52.1269 65.6967 52.1269C66.9446 52.1269 68.3485 53.0126 68.3485 54.4714V58.2748H69.1284V59.2126H68.5305L68.5825 59.1605ZM67.3346 57.1546V56.0084H65.9047C64.6828 56.0084 64.1368 56.3731 64.1368 57.0504V57.337C64.1368 58.0143 64.6828 58.405 65.5147 58.405C66.3467 58.405 67.3346 57.858 67.3346 57.1546Z" fill="#000000"/>
<path d="M70.7922 59.1605V52.2311H71.8582V53.3512H71.9102C72.2481 52.5697 72.8461 52.0487 73.86 52.0487C74.8739 52.0487 76.1738 53.0126 76.1738 54.7059V59.1605H75.1079V54.9143C75.1079 53.6899 74.5619 53.0386 73.548 53.0386C72.5341 53.0386 71.8582 53.4815 71.8582 54.3672V59.1865H70.7922V59.1605Z" fill="#000000"/>
<path d="M80.8276 59.1605V58.2227H82.1535V50.7202H80.8276V49.7823H84.5713V50.7202H83.2455V58.2227H84.5713V59.1605H80.8276Z" fill="#000000"/>
<path d="M86.7031 49.7823H90.5508C92.0847 49.7823 93.0466 50.7462 93.0466 52.205C93.0466 53.6639 92.1367 54.1067 91.5387 54.1849V54.263C92.2147 54.3151 93.3846 54.8882 93.3846 56.4513C93.3846 58.0143 92.3447 59.1605 90.9668 59.1605H86.7031V49.7823ZM87.821 53.8462H90.4208C91.3048 53.8462 91.8507 53.3773 91.8507 52.5437V52.0748C91.8507 51.2412 91.3048 50.7723 90.4208 50.7723H87.821V53.8462ZM87.821 58.1706H90.6028C91.5647 58.1706 92.1627 57.6496 92.1627 56.7118V56.2428C92.1627 55.305 91.5647 54.784 90.6028 54.784H87.821V58.1445V58.1706Z" fill="#000000"/>
<path d="M95.5425 49.7823H97.0504L99.7282 54.8361H99.8061L102.51 49.7823H103.966V59.1605H102.874V51.2672H102.796L102.016 52.8302L99.7801 56.9202L97.5443 52.8302L96.7644 51.2672H96.6864V59.1605H95.5945V49.7823H95.5425Z" fill="#000000"/>
<path d="M108.723 54.5235C108.723 51.3975 110.127 49.626 112.493 49.626C114.859 49.626 115.119 50.3815 115.717 51.684L114.807 52.2311C114.443 51.2672 113.663 50.642 112.493 50.642C111.323 50.642 109.919 51.9185 109.919 53.8462V55.2529C109.919 57.1807 110.881 58.3529 112.493 58.3529C114.105 58.3529 114.495 57.6756 114.885 56.6597L115.795 57.2328C115.197 58.5613 114.053 59.3689 112.519 59.3689C110.153 59.3689 108.749 57.7017 108.749 54.5756L108.723 54.5235Z" fill="#000000"/>
<path d="M116.965 55.6958C116.965 53.4815 118.238 52.0748 120.084 52.0748C121.93 52.0748 123.204 53.5075 123.204 55.6958C123.204 57.884 121.93 59.3168 120.084 59.3168C118.238 59.3168 116.965 57.884 116.965 55.6958ZM122.06 56.1907V55.2008C122.06 53.742 121.254 53.0126 120.084 53.0126C118.914 53.0126 118.108 53.7159 118.108 55.2008V56.1907C118.108 57.6496 118.914 58.379 120.084 58.379C121.254 58.379 122.06 57.6756 122.06 56.1907Z" fill="#000000"/>
<path d="M125.05 59.1605V52.2311H126.116V53.3512H126.168C126.48 52.6479 126.948 52.0487 128.04 52.0487C129.132 52.0487 129.782 52.4655 130.146 53.4554H130.172C130.432 52.7 131.108 52.0487 132.277 52.0487C133.447 52.0487 134.539 53.0126 134.539 54.7059V59.1605H133.473V54.9143C133.473 53.6899 133.005 53.0386 131.965 53.0386C130.926 53.0386 130.354 53.4815 130.354 54.3672V59.1865H129.288V54.9403C129.288 53.7159 128.82 53.0647 127.806 53.0647C126.792 53.0647 126.168 53.5075 126.168 54.3932V59.2126H125.102L125.05 59.1605Z" fill="#000000"/>
<path d="M136.827 52.2311H137.893V53.3512H137.945C138.309 52.4655 139.011 52.0487 139.973 52.0487C141.715 52.0487 142.781 53.4554 142.781 55.6697C142.781 57.884 141.689 59.2907 139.973 59.2907C138.257 59.2907 138.361 58.8479 137.945 57.9882H137.893V61.7916H136.827V52.179V52.2311ZM141.637 56.2949V55.1227C141.637 53.8983 140.883 53.0647 139.687 53.0647C138.491 53.0647 137.893 53.6378 137.893 54.3932V56.9722C137.893 57.884 138.699 58.379 139.687 58.379C140.675 58.379 141.637 57.5454 141.637 56.321V56.2949Z" fill="#000000"/>
<path d="M149.696 59.1605C148.916 59.1605 148.578 58.6655 148.5 58.0403H148.422C148.136 58.8739 147.382 59.3429 146.42 59.3429C144.964 59.3429 144.106 58.5353 144.106 57.2588C144.106 55.9823 145.042 55.2269 147.044 55.2269H148.422V54.5496C148.422 53.5597 147.876 53.0387 146.784 53.0387C145.692 53.0387 145.406 53.4294 145.016 54.0807L144.366 53.4815C144.73 52.7521 145.562 52.1269 146.81 52.1269C148.058 52.1269 149.462 53.0126 149.462 54.4714V58.2748H150.242V59.2126H149.644L149.696 59.1605ZM148.422 57.1546V56.0084H146.992C145.77 56.0084 145.224 56.3731 145.224 57.0504V57.337C145.224 58.0143 145.77 58.405 146.602 58.405C147.434 58.405 148.422 57.858 148.422 57.1546Z" fill="#000000"/>
<path d="M151.88 59.1605V52.2311H152.946V53.3512H152.998C153.336 52.5697 153.934 52.0487 154.948 52.0487C155.962 52.0487 157.261 53.0126 157.261 54.7059V59.1605H156.196V54.9143C156.196 53.6899 155.65 53.0386 154.636 53.0386C153.622 53.0386 152.946 53.4815 152.946 54.3672V59.1865H151.88V59.1605Z" fill="#000000"/>
<path d="M163.735 52.2311H164.801L161.707 60.7756C161.395 61.6092 161.109 61.8437 160.095 61.8437H159.549V60.9059H160.641L161.161 59.421L158.562 52.2311H159.627L161.291 56.9462L161.603 58.0664H161.681L162.045 56.9462L163.709 52.2311H163.735Z" fill="#000000"/>
<path d="M63.1489 12.2698H68.4785V23.758H80.6975V12.2698H86.0791V40.4042H80.6975V28.5773H68.4785V40.4042H63.1489V12.2698Z" fill="#000000"/>
<path d="M89.511 34.9597C89.511 30.7395 92.4748 29.3328 96.0885 28.4731L102.198 27.0664V26.5714C102.198 24.5134 100.872 23.237 98.7403 23.237C96.6084 23.237 95.3605 24.4092 94.9706 26.337L90.3949 25.816C91.0709 21.9605 94.3206 19.4597 98.9482 19.4597C103.576 19.4597 107.372 22.6899 107.372 27.379V35.6109C107.372 36.1319 107.528 36.2882 107.892 36.2882H109.009V40.3781H105.89C103.914 40.3781 103.03 39.7269 103.03 38.1378C103.03 36.5487 103.108 37.0958 103.316 36.3664L102.874 36.2101C101.418 39.3361 99.3122 40.7168 96.2965 40.7168C93.2807 40.7168 89.511 38.4244 89.511 34.9336V34.9597ZM97.6743 36.9655C100.326 36.9655 102.198 35.0378 102.198 31.9899V30.3748L97.8303 31.4168C95.6205 31.9378 94.7106 32.6933 94.7106 34.3865C94.7106 36.0798 95.8805 36.9655 97.6743 36.9655Z" fill="#000000"/>
<path d="M110.907 34.8815L115.795 33.9176C116.315 36.0798 118.031 37.1739 120.318 37.1739C122.606 37.1739 123.88 36.2361 123.88 34.6731C123.88 33.1101 122.346 32.7714 119.461 32.2504C115.821 31.6773 111.089 31 111.089 25.9462C111.089 20.8924 114.339 19.4597 119.643 19.4597C124.946 19.4597 127.988 21.4395 128.82 25.3992L123.88 26.2067C123.438 24.2008 121.8 23.1588 119.617 23.1588C117.433 23.1588 116.133 24.1748 116.133 25.5294C116.133 26.884 117.693 27.4311 120.578 27.9521C124.192 28.5252 128.924 29.2025 128.924 34.2563C128.924 39.3101 125.7 40.8992 120.292 40.8992C114.885 40.8992 111.739 38.8933 110.855 34.8555L110.907 34.8815Z" fill="#000000"/>
<path d="M137.347 40.4302H132.122V11.4882H137.347V20.5017C137.347 21.5437 137.139 22.5596 136.853 24.0445L137.347 24.2008C138.595 21.2311 140.467 19.4857 143.977 19.4857C147.486 19.4857 150.788 22.2991 150.788 27.0924V40.4302H145.563V27.2487C145.563 24.9042 144.393 23.6277 142.079 23.6277C139.765 23.6277 137.347 25.6336 137.347 29.1765V40.4302Z" fill="#000000"/>
<path d="M161.499 35.2202C161.499 36.0277 161.785 36.2622 162.383 36.2622H164.671V40.4042H159.939C157.574 40.4042 156.3 39.0756 156.3 36.6269V24.0966H153.414V19.9546H161.525V35.2202H161.499ZM155.572 14.484C155.572 12.7126 157.028 11.2538 158.743 11.2538C160.459 11.2538 161.915 12.7126 161.915 14.484C161.915 16.2555 160.511 17.6622 158.743 17.6622C156.976 17.6622 155.572 16.2555 155.572 14.484Z" fill="#000000"/>
<path d="M166.387 26.363C166.387 17.9227 171.925 11.8269 179.932 11.8269C187.939 11.8269 191.293 15.7345 192.515 21.0227L187.211 22.2992C186.197 18.6 183.754 16.516 179.906 16.516C176.058 16.516 171.925 20.5798 171.925 26.363C171.925 32.1462 175.148 36.2101 180.114 36.2101C185.079 36.2101 186.457 34.074 187.471 30.1403L192.489 30.7135C191.293 37.0177 186.639 40.9252 180.062 40.9252C173.484 40.9252 166.387 34.8034 166.387 26.3891V26.363Z" fill="#000000"/>
<path d="M194.673 30.1664C194.673 23.9403 199.04 19.4857 205.098 19.4857C211.155 19.4857 215.523 23.9403 215.523 30.1664C215.523 36.3924 211.155 40.8992 205.098 40.8992C199.04 40.8992 194.673 36.3924 194.673 30.1664ZM210.323 30.1664C210.323 26.3109 208.27 23.7319 205.098 23.7319C201.926 23.7319 199.872 26.3109 199.872 30.1664C199.872 34.0219 201.952 36.6529 205.098 36.6529C208.244 36.6529 210.323 34.074 210.323 30.1664Z" fill="#000000"/>
<path d="M218.825 19.9547H223.634V20.7622C223.634 21.8563 223.582 22.742 223.27 24.3832L223.764 24.5135C224.518 21.8303 225.922 19.9807 229.224 19.9807H230.706V25.0605H228.574C225.636 25.0605 224.05 26.832 224.05 30.0883V40.4563H218.825V20.0068V19.9547Z" fill="#000000"/>
<path d="M233.15 19.9546H238.297V20.8925C238.297 21.8303 238.219 22.5336 237.933 24.2009L238.427 24.3311C239.675 21.0748 241.989 19.5118 245.005 19.5118C249.97 19.5118 253.922 23.6017 253.922 30.1925C253.922 36.7832 249.996 40.9252 245.005 40.9252C240.013 40.9252 239.779 39.3622 238.505 36.0538L238.063 36.2101C238.297 37.8252 238.375 38.5807 238.375 39.4664V48.6622H233.15V19.9546ZM248.722 30.1664C248.722 26.1807 246.565 23.732 243.497 23.732C240.429 23.732 238.271 26.1807 238.271 30.1664C238.271 34.1521 240.429 36.653 243.497 36.653C246.565 36.653 248.722 34.2042 248.722 30.1664Z" fill="#000000"/>
<path d="M20.7984 0L0 12.0353V40.8992L7.79939 45.4059V16.542L20.7984 9.0395V0Z" fill="#000000"/>
<path d="M29.0916 0V23.0025H20.7983V14.4059L12.9729 18.9387V48.4017L20.7983 52.9084V29.984H29.0916V38.5286L36.917 33.9958V4.53277L29.0916 0Z" fill="#000000"/>
<path d="M29.0918 52.9345L49.8902 40.8992V12.0353L42.0648 7.52856V36.3924L29.0918 43.895V52.9345Z" fill="#000000"/>
</g>
<defs>
<clipPath id="clip0_1872_164">
<rect width="254" height="62" fill="#000000"/>
</clipPath>
</defs>
</svg>
