<?xml version="1.0" encoding="UTF-8"?>
<svg id="Layer_1" data-name="Layer 1" xmlns="http://www.w3.org/2000/svg" width="340" height="180" xmlns:xlink="http://www.w3.org/1999/xlink" viewBox="40 50 300 110">
  <g>
    <g>
      <path d="M56.1092143,119.9235675c0-18.7441615,12.5853659-31.7758153,30.4815783-31.7758153s21.9128167,6.0249091,25.8401662,15.3969898c.4909178.9372108.5801744,1.7851582.5801744,2.722369,0,2.1421912-1.65127,3.5703165-3.7934613,3.5703165s-3.0793986-.9372108-3.7934613-2.8562505c-3.0793986-7.5869225-10.0861434-11.9605616-18.8334181-11.9605616-13.3886868,0-22.7607676,10.1754033-22.7607676,24.9029588s9.2381942,24.7690638,22.7607676,24.7690638,15.3969898-4.2843825,18.9673063-13.165542c.7140626-1.7851582,1.8744148-2.8562505,3.659573-2.8562505s3.7934613,1.65127,3.7934613,3.7934613-.1338882,1.4281252-.4909178,2.4992243c-3.7934613,10.1753965-13.5225716,16.6912268-25.9740544,16.6912268-18.0300989,0-30.4815783-13.0316538-30.4815783-31.7758153l.0446317.0446249Z"/>
      <path d="M157.7739774,146.4777963c0,2.588474-1.4281252,4.2843825-3.9273495,4.2843825s-3.7934613-1.6512768-3.7934613-4.2843825v-73.5038891c0-2.7223656,1.4281252-4.2843791,3.9273495-4.2843791s3.7934613,1.5620135,3.7934613,4.2843791v16.7358585h13.2547986c2.3653292,0,3.7934613,1.294237,3.7934613,3.4364282s-1.428132,3.4364282-3.7934613,3.4364282h-13.2547986v49.8951742Z"/>
      <path d="M217.130482,93.86026c0,2.1421912-1.5620135,3.659573-3.7934613,3.659573s-1.6512768-.2231448-2.8562505-.8479474c-1.7851582-.8479474-3.6595798-1.294237-6.1587905-1.294237-8.1670935,0-13.5225682,7.0960013-13.5225682,16.111049v34.9444807c0,2.722369-1.294237,4.2843825-3.7934613,4.2843825s-3.9273427-1.5620135-3.9273427-4.2843825v-53.1084576c0-2.722369,1.428132-4.2843825,3.9273427-4.2843825s3.7934613,1.5620135,3.7934613,4.2843825v1.5173818c3.30254-4.373639,8.5241333-6.7389751,14.3258976-6.7389751s7.7208039.9372108,9.9522517,2.365336c1.294237.8479474,2.008303,1.8744148,2.008303,3.30254l.0446181.0892565Z"/>
      <path d="M224.9405493,93.3693387c0-2.722369,1.428132-4.2843825,3.9273427-4.2843825s3.7934613,1.5620135,3.7934613,4.2843825v53.1084576c0,2.588474-1.428132,4.2843825-3.9273427,4.2843825s-3.7934613-1.6512768-3.7934613-4.2843825v-53.1084576Z"/>
      <g>
        <path d="M126.5337082,93.3693387c0-2.722369,1.4281252-4.2843825,3.9273495-4.2843825s3.7934613,1.5620135,3.7934613,4.2843825v53.1084576c0,2.588474-1.4281252,4.2843825-3.9273495,4.2843825s-3.7934613-1.6512768-3.7934613-4.2843825v-53.1084576Z"/>
        <circle cx="130.3717943" cy="74.7590654" r="6.069539"/>
      </g>
      <path d="M272.6935322,124.6542396l-20.9756093,24.5459258c-.8479474,1.0710922-1.8744216,1.5620135-3.0793952,1.5620135-2.1421844,0-3.6595798-1.6512768-3.6595798-3.5703165s.2231448-1.7851582,1.0710922-2.722369l21.9128201-24.7690706-21.1094907-24.1888928c-.8479474-.9372108-1.294237-1.7851582-1.294237-2.8562505,0-1.8744148,1.5173818-3.5703165,3.7934613-3.5703165s2.008303.4909212,2.9455138,1.5620135l20.3954383,23.9211163,20.3954247-23.9211231c.9371972-1.0710922,1.7851582-1.5620135,2.9455002-1.5620135,2.2314478,0,3.7934613,1.65127,3.7934613,3.5703165s-.4909076,1.8744148-1.2942506,2.8562505l-21.1094907,24.1888928,21.9128065,24.7690774c.8479611.9372108,1.0711058,1.8744216,1.0711058,2.722369,0,1.8744216-1.5173954,3.5703165-3.6595798,3.5703165s-2.2314478-.4909212-3.0794089-1.5620135l-20.9756093-24.5459258h.0000272Z"/>
      <circle cx="272.6935322" cy="74.7590654" r="6.069539"/>
    </g>
    <path d="M315.3141852,150.7175472c-.8479611,0-1.6066315-.1785131-2.3653292-.4909212-.7140524-.3124081-1.3834867-.7586977-1.9190397-1.294237-.5355529-.5355529-.9818425-1.2049873-1.2942506-1.9190397-.3124081-.714066-.4909076-1.5173818-.4909076-2.3653292s.1785267-1.6066451.4909076-2.3653292c.3124081-.714066.7586977-1.3835004,1.2942506-1.9190397s1.2049873-.9818357,1.9190397-1.294237,1.5173954-.4909212,2.3653292-.4909212,1.6066315.1785131,2.3653292.4909212c.7140524.3124013,1.3834867.7586977,1.9190397,1.294237.5355529.5355529.9818425,1.1603556,1.2942506,1.9190397s.4909076,1.5173818.4909076,2.3653292-.1785267,1.6512768-.4909076,2.3653292c-.3124081.714066-.7586977,1.3835004-1.2942506,1.9190397-.5355529.5355529-1.2049873.9818425-1.9190397,1.294237-.7140524.3124081-1.5173954.4909212-2.3653292.4909212ZM315.3141852,149.9142314c.7140524,0,1.428132-.1338814,2.0529211-.4016579.6248163-.2677765,1.160342-.6248027,1.6066315-1.1157239s.8033158-1.0264605,1.0711058-1.6512768c.2677628-.6248027.4016715-1.3388687.4016715-2.0975664s-.1338814-1.428132-.4016715-2.0529347c-.2677628-.6248027-.6248163-1.2049873-1.0711058-1.6512768s-.9818425-.8479474-1.6066315-1.1157239c-.6248163-.2677765-1.2942506-.4016579-2.0529211-.4016579s-1.428132.1338882-2.0529211.4016579c-.6248163.2677765-1.160342.6248027-1.6066315,1.1157239-.4462896.4462896-.8033158,1.0264605-1.0711058,1.6512768-.2677628.6248027-.4016715,1.3388687-.4016715,2.0529347s.1338814,1.428132.4016715,2.0975664c.2677628.6248027.6248163,1.2049873,1.0711058,1.6512768.4462896.4909212.9818425.8479474,1.6066315,1.1157239.6248163.2677765,1.2942506.4016579,2.0529211.4016579ZM318.3043307,148.0398098h-.9818425l-1.9190397-3.1240269h-1.5173954v3.1240269h-.8479611v-6.7389751h2.9455002c.8925791,0,1.5173954.1785131,1.8744216.4909212s.5355529.7586977.5355529,1.294237-.0446181.6248027-.1785267.8479474c-.0892634.2231448-.2677628.4016579-.4462896.580171-.1785267.1338814-.4016715.2677765-.6694343.3124081-.2677628.0892634-.5355529.0892634-.8479611.1338814l2.0529211,3.1240269.0000545-.0446181ZM315.1356857,144.2909802h.7586977c.2677628,0,.5355529,0,.7586977-.0892634.2231448-.0446317.4462896-.1785131.580171-.3570262s.2231448-.4462896.2231448-.7586977-.0446181-.4909212-.1338814-.6248027-.2231448-.2677765-.4016715-.3570262-.3570262-.1338814-.5355529-.1785131h-2.5438559v2.4099609h1.2496053l.0446453-.0446317Z"/>
  </g>
  
</svg>