<svg xmlns="http://www.w3.org/2000/svg" xmlns:v="https://vecta.io/nano" width="300" height="360" fill="none"><rect x=".5" y=".5" width="299" height="359" rx="4.5" fill="#202020"/><rect x=".5" y=".5" width="299" height="359" rx="4.5" stroke="url(#A)"/><path fill="#202c35" d="M31 33.5h238v177H31z"/><path stroke="#2196f3" stroke-width="2" stroke-dasharray="6 6" d="M31 33.5h238v177H31z"/><path d="M172.06 140.159a1 1 0 0 0 .599 1.281l8.46 3.07a1 1 0 1 0 .682-1.88l-7.52-2.729 2.729-7.52a1 1 0 1 0-1.88-.682l-3.07 8.46zm39.016-18.565l-.875.409.848 1.812.875-.409-.848-1.812zm-2.625 1.227l-1.75.819.848 1.811 1.75-.818-.848-1.812zm-3.5 1.637l-1.75.818.848 1.812 1.75-.818-.848-1.812zm-3.5 1.636l-1.75.818.848 1.812 1.75-.818-.848-1.812zm-3.5 1.636l-1.75.819.848 1.811 1.75-.818-.848-1.812zm-3.5 1.637l-1.75.818.848 1.812 1.75-.818-.848-1.812zm-3.5 1.636l-1.75.818.848 1.812 1.75-.818-.848-1.812zm-3.5 1.637l-1.75.818.848 1.812 1.75-.819-.848-1.811zm-3.5 1.636l-1.75.818.848 1.812 1.75-.818-.848-1.812zm-3.5 1.636l-1.75.818.848 1.812 1.75-.818-.848-1.812zm-3.5 1.637l-1.75.818.848 1.812 1.75-.819-.848-1.811zm-3.5 1.636l-.875.409.848 1.812.875-.409-.848-1.812zm-2.331.633a2 2 0 0 0 1.198 2.562l16.92 6.139a2 2 0 1 0 1.365-3.76l-15.041-5.457 5.457-15.04a2 2 0 1 0-3.76-1.365l-6.139 16.921zm39.533-19.13l-.875.409 1.694 3.624.875-.409-1.694-3.624zm-2.625 1.228l-1.75.818 1.694 3.623 1.75-.818-1.694-3.623zm-3.5 1.636l-1.75.818 1.694 3.624 1.75-.819-1.694-3.623zm-3.5 1.636l-1.75.818 1.694 3.624 1.75-.818-1.694-3.624zm-3.5 1.637l-1.75.818 1.694 3.623 1.75-.818-1.694-3.623zm-3.5 1.636l-1.75.818 1.694 3.624 1.75-.819-1.694-3.623zm-3.5 1.636l-1.75.819 1.694 3.623 1.75-.818-1.694-3.624zm-3.5 1.637l-1.75.818 1.694 3.623 1.75-.818-1.694-3.623zm-3.5 1.636l-1.75.818 1.694 3.624 1.75-.818-1.694-3.624zm-3.5 1.636l-1.75.819 1.694 3.623 1.75-.818-1.694-3.624zm-3.5 1.637l-1.75.818 1.694 3.623 1.75-.818-1.694-3.623zm-3.5 1.636l-.875.409 1.694 3.624.875-.409-1.694-3.624z" fill="#455a64"/><rect x="51.333" y="46.333" width="77.333" height="77.333" rx="12" fill="#326ce5" stroke="#326ce5" stroke-width="2.667"/><path d="M91.164 58.338c-.487.024-.964.144-1.403.352l-19.142 9.076a3.65 3.65 0 0 0-1.274 1 3.58 3.58 0 0 0-.707 1.444l-4.722 20.388c-.109.47-.121.956-.036 1.431a3.57 3.57 0 0 0 .533 1.332l.208.287 13.249 16.348c.343.423.778.765 1.274 1a3.72 3.72 0 0 0 1.588.356l21.247-.005a3.7 3.7 0 0 0 1.588-.355c.495-.234.931-.575 1.274-.998l13.244-16.35a3.59 3.59 0 0 0 .708-1.445 3.56 3.56 0 0 0 0-1.604l-4.73-20.388c-.122-.528-.364-1.021-.707-1.445s-.778-.765-1.273-.999L92.938 58.69a3.71 3.71 0 0 0-1.775-.352z" fill="#fff"/><g fill="#326ce5"><g stroke="#326ce5"><path d="M91.353 65.276c-.633 0-1.146.566-1.146 1.263 0 .011.002.021.002.032l-.002.291c.015.402.104.71.157 1.081.096.793.177 1.451.127 2.063-.049.231-.22.441-.372.588l-.027.481c-.687.056-1.38.16-2.071.316-2.975.67-5.536 2.191-7.486 4.244l-.414-.291c-.205.027-.411.09-.681-.066-.513-.342-.98-.815-1.545-1.385-.259-.272-.446-.532-.754-.794l-.255-.202a1.37 1.37 0 0 0-.798-.299c-.352-.012-.691.125-.913.401-.394.491-.268 1.241.282 1.676.006.004.011.008.017.012l.237.189c.326.239.625.362.95.552.685.42 1.253.768 1.704 1.188.176.186.207.514.23.656l.367.326c-1.966 2.936-2.876 6.562-2.338 10.257l-.48.138c-.126.162-.305.417-.492.493-.59.184-1.253.252-2.054.335-.376.031-.7.013-1.099.087-.088.016-.21.048-.306.07-.015.004-.022.006-.027.007-.675.162-1.109.778-.97 1.385s.799.976 1.479.831c.025-.004.032-.008.039-.01.095-.021.213-.044.296-.066.392-.104.676-.257 1.028-.391.758-.27 1.386-.495 1.998-.583.256-.02.525.156.659.231l.499-.085c1.149 3.536 3.558 6.394 6.607 8.187l-.208.496c.075.192.158.453.102.643-.222.572-.603 1.176-1.037 1.849-.21.312-.425.553-.614.909-.045.085-.103.216-.147.306-.294.625-.079 1.346.487 1.616s1.276-.015 1.581-.642c.046-.093.108-.21.144-.294.162-.369.216-.685.331-1.042.303-.755.47-1.548.887-2.042.114-.136.301-.188.494-.239l.26-.467a14.91 14.91 0 0 0 8.608.615 14.99 14.99 0 0 0 1.966-.588l.245.437c.196.064.41.097.585.353.312.529.526 1.155.786 1.912.114.357.171.673.333 1.042.037.084.098.202.142.292.305.628 1.014.916 1.584.643s.782-.99.488-1.615c-.044-.09-.104-.221-.15-.306-.189-.356-.404-.595-.614-.907-.434-.673-.794-1.232-1.016-1.805-.093-.295.016-.479.088-.671-.043-.049-.136-.328-.191-.459a14.82 14.82 0 0 0 6.605-8.246c.148.023.406.068.49.085.172-.113.33-.26.641-.236.612.088 1.24.313 1.998.583.352.134.636.289 1.028.394.083.022.201.043.296.063.008.002.014.006.022.007.697.148 1.356-.221 1.496-.828s-.294-1.223-.97-1.385c-.098-.022-.237-.06-.333-.078-.398-.075-.723-.056-1.099-.087-.801-.083-1.464-.151-2.054-.335-.24-.093-.411-.376-.494-.493l-.463-.134c.24-1.722.175-3.515-.24-5.308a14.65 14.65 0 0 0-2.147-4.924l.407-.362c.018-.204.002-.418.215-.644.451-.42 1.019-.768 1.704-1.188.325-.19.626-.312.952-.551.074-.054.175-.14.252-.202.55-.435.676-1.185.282-1.676s-1.159-.537-1.709-.102l-.254.202c-.308.263-.498.522-.757.794-.565.57-1.032 1.045-1.545 1.387-.222.128-.547.084-.695.075l-.436.308a15.06 15.06 0 0 0-9.511-4.56l-.027-.508c-.149-.142-.329-.263-.375-.569-.05-.611.033-1.269.13-2.063.053-.371.142-.679.157-1.081.003-.091-.002-.224-.002-.323 0-.698-.513-1.263-1.146-1.263h0zm-1.435 8.819l-.34 5.964-.024.012c-.023.534-.465.96-1.009.96a1.01 1.01 0 0 1-.595-.192l-.01.005-4.928-3.467a11.83 11.83 0 0 1 5.685-3.073c.408-.092.816-.16 1.222-.209zm2.872 0a11.94 11.94 0 0 1 6.865 3.285l-4.896 3.445-.017-.007c-.435.315-1.047.237-1.386-.185a.99.99 0 0 1-.22-.581l-.005-.002-.34-5.955zm-11.565 5.51l4.5 3.994-.005.024c.406.35.466.958.127 1.38a1.01 1.01 0 0 1-.524.343l-.005.019-5.768 1.652a11.64 11.64 0 0 1 1.674-7.412zm20.224.002c.669 1.075 1.175 2.276 1.476 3.579.298 1.286.373 2.571.25 3.812l-5.797-1.657-.005-.024c-.519-.141-.838-.665-.717-1.19.049-.215.165-.397.321-.532l-.002-.012 4.475-3.975h0zm-11.019 4.3h1.843l1.146 1.421-.411 1.773-1.655.79-1.66-.792-.411-1.773 1.148-1.419zm5.91 4.864c.078-.004.156.003.233.017l.01-.012 5.966 1.001c-.873 2.434-2.544 4.543-4.776 5.955l-2.316-5.551.007-.01a1 1 0 0 1 .49-1.3c.125-.06.256-.093.387-.1h0zm-10.02.024a1.01 1.01 0 0 1 .969.78c.049.215.025.429-.056.617l.017.022-2.291 5.496a11.79 11.79 0 0 1-4.762-5.913l5.915-.996.01.012a1.04 1.04 0 0 1 .198-.017h0zm4.997 2.408c.159-.006.319.026.472.1a1 1 0 0 1 .453.428h.022l2.916 5.228c-.378.126-.767.233-1.165.323-2.23.502-4.453.35-6.465-.33l2.908-5.219h.005c.174-.324.505-.517.854-.53z" stroke-width=".133"/><path d="M214.731 51.735a10.93 10.93 0 0 0-12.849 0l-26.885 19.534a10.93 10.93 0 0 0-3.971 12.22l10.27 31.606a10.93 10.93 0 0 0 10.394 7.552h33.233a10.93 10.93 0 0 0 10.395-7.552l10.269-31.606a10.93 10.93 0 0 0-3.97-12.22l-26.886-19.534z" fill-opacity=".1" stroke-width="2.429"/></g><path fill-rule="evenodd" d="M235.85 111.236c-4.921-2.345-7.001-8.219-4.645-13.118 1.131-2.353 3.155-4.162 5.626-5.029a9.92 9.92 0 0 1 7.55.405c4.921 2.346 7 8.219 4.644 13.118s-8.254 6.97-13.175 4.624z"/></g><path d="M240.027 96.465c-.111.006-.22.033-.32.081l-4.362 2.075a.83.83 0 0 0-.29.228c-.078.097-.133.21-.161.33l-1.076 4.661a.8.8 0 0 0-.008.327c.019.108.06.212.121.304l.047.066 3.02 3.737a.83.83 0 0 0 .29.228.84.84 0 0 0 .362.082l4.842-.001c.125 0 .249-.028.361-.082a.82.82 0 0 0 .291-.228l3.018-3.737c.078-.097.133-.21.161-.331a.81.81 0 0 0 0-.366l-1.078-4.661a.82.82 0 0 0-.161-.33.83.83 0 0 0-.29-.228l-4.363-2.074a.84.84 0 0 0-.404-.081z" fill="#fff"/><path d="M240.068 98.051c-.145 0-.261.129-.261.289v.074c.003.092.023.162.035.247.022.181.041.332.029.471-.011.053-.05.101-.084.134l-.007.11a3.45 3.45 0 0 0-.472.072c-.678.153-1.261.501-1.706.97l-.094-.066c-.046.006-.094.02-.155-.015-.117-.079-.223-.187-.352-.317-.059-.062-.102-.121-.172-.181l-.058-.046a.31.31 0 0 0-.182-.068c-.08-.003-.157.028-.208.092-.09.112-.061.284.064.383l.058.046c.075.055.143.083.217.126.156.096.285.176.388.272.04.042.047.117.053.15l.083.074a3.35 3.35 0 0 0-.532 2.345l-.11.032c-.029.037-.069.095-.112.112a2.44 2.44 0 0 1-.468.077c-.086.007-.16.003-.251.02l-.069.016c-.16.039-.259.18-.227.318s.182.223.337.19l.076-.017c.089-.024.154-.059.234-.089.173-.062.316-.114.456-.134.058-.004.119.036.15.053l.113-.019c.262.808.811 1.461 1.506 1.871l-.047.113c.017.044.036.104.023.147-.051.131-.137.269-.236.423-.048.071-.097.127-.14.208-.011.019-.024.049-.034.07-.067.143-.018.308.111.369s.291-.003.361-.146l.032-.068c.037-.084.05-.156.076-.238.069-.173.107-.354.202-.467.026-.031.068-.043.112-.054l.06-.107c.605.232 1.284.294 1.961.141a3.42 3.42 0 0 0 .448-.135l.056.1c.045.015.093.022.133.081.071.121.12.264.179.437.026.081.039.154.076.238l.032.067c.07.143.231.209.361.147s.179-.227.111-.369l-.034-.07c-.043-.082-.092-.136-.14-.208-.098-.154-.18-.281-.231-.412-.021-.068.003-.11.02-.154-.01-.011-.031-.075-.044-.104a3.39 3.39 0 0 0 1.506-1.885l.111.019c.039-.026.075-.059.146-.054.14.02.283.072.456.133.08.031.144.067.234.09l.067.015c.164.035.314-.049.346-.188s-.067-.279-.221-.316l-.076-.018c-.09-.017-.164-.013-.25-.02a2.44 2.44 0 0 1-.468-.077c-.055-.021-.094-.086-.113-.113l-.105-.03a3.35 3.35 0 0 0-.055-1.214c-.095-.413-.264-.792-.489-1.125l.092-.083c.005-.047.001-.096.05-.147.102-.096.232-.176.388-.272.074-.043.142-.071.217-.126.017-.012.04-.032.057-.046.126-.099.154-.271.064-.383s-.264-.123-.389-.023l-.058.046c-.07.06-.113.119-.172.181-.129.13-.236.239-.352.317-.051.03-.125.019-.159.018l-.099.07c-.566-.591-1.337-.969-2.167-1.042l-.007-.116c-.034-.032-.075-.06-.085-.13-.011-.14.008-.29.03-.471.012-.085.032-.155.035-.247v-.074c0-.16-.117-.289-.261-.289h0zm-.327 2.016l-.078 1.364-.005.002a.23.23 0 0 1-.23.22c-.051 0-.098-.016-.136-.044l-.002.001-1.123-.792c.345-.338.787-.588 1.295-.703.093-.021.186-.037.279-.048zm.654 0a2.72 2.72 0 0 1 1.564.751l-1.115.788-.004-.002c-.099.072-.239.054-.316-.042-.032-.04-.048-.086-.05-.133l-.001-.001-.078-1.361zm-2.635 1.26l1.025.913-.001.005c.093.081.106.22.029.316-.032.039-.074.066-.119.078l-.001.005-1.315.377a2.66 2.66 0 0 1 .382-1.694zm4.608 0c.153.246.268.521.337.818s.085.588.057.872l-1.321-.379-.002-.005a.23.23 0 0 1-.163-.273c.011-.049.038-.09.073-.121v-.003l1.019-.909h0zm-2.511.983h.42l.262.325-.094.406-.377.18-.379-.181-.093-.405.261-.325zm1.347 1.112c.018-.001.036.001.053.004l.002-.003 1.36.229c-.199.557-.58 1.039-1.089 1.361l-.527-1.269.001-.002a.23.23 0 0 1 .2-.32h0zm-2.283.006a.23.23 0 0 1 .221.178c.011.049.005.098-.013.141l.004.005-.522 1.256c-.489-.311-.878-.778-1.086-1.351l1.348-.228.003.003c.015-.003.03-.004.045-.004h0zm1.138.55c.036-.001.073.006.108.023.046.022.081.056.103.098h.005l.665 1.195c-.087.029-.175.053-.266.074-.508.115-1.015.08-1.473-.076l.662-1.193h.002a.23.23 0 0 1 .194-.121z" fill="#326ce5" stroke="#326ce5" stroke-width=".121"/><path d="M172.707 81.207a1 1 0 0 0 0-1.414l-6.364-6.364a1 1 0 0 0-1.414 1.414l5.657 5.657-5.657 5.657a1 1 0 0 0 1.414 1.414l6.364-6.364zM130 81.5h.955v-2H130v2zm2.864 0h1.909v-2h-1.909v2zm3.818 0h1.909v-2h-1.909v2zm3.818 0h1.909v-2H140.5v2zm3.818 0h1.909v-2h-1.909v2zm3.818 0h1.909v-2h-1.909v2zm3.819 0h1.909v-2h-1.909v2zm3.818 0h1.909v-2h-1.909v2zm3.818 0h1.909v-2h-1.909v2zm3.818 0h1.909v-2h-1.909v2zm3.818 0h1.909v-2h-1.909v2zm3.818 0H172v-2h-.955v2zm2.369.414a2 2 0 0 0 0-2.828l-12.728-12.728a2 2 0 0 0-2.828 2.828L169.172 80.5l-11.314 11.314a2 2 0 0 0 2.828 2.828l12.728-12.728zM130 82.5h.955v-4H130v4zm2.864 0h1.909v-4h-1.909v4zm3.818 0h1.909v-4h-1.909v4zm3.818 0h1.909v-4H140.5v4zm3.818 0h1.909v-4h-1.909v4zm3.818 0h1.909v-4h-1.909v4zm3.819 0h1.909v-4h-1.909v4zm3.818 0h1.909v-4h-1.909v4zm3.818 0h1.909v-4h-1.909v4zm3.818 0h1.909v-4h-1.909v4zm3.818 0h1.909v-4h-1.909v4zm3.818 0H172v-4h-.955v4z" fill="#455a64"/><g clip-path="url(#B)"><path fill-rule="evenodd" d="M136.186 195.856c-15.937-7.63-22.672-26.737-15.042-42.676a31.99 31.99 0 0 1 18.22-16.36c8.002-2.821 16.797-2.348 24.45 1.317 15.937 7.63 22.672 26.736 15.042 42.675s-26.733 22.674-42.67 15.044z" fill="#fe733e"/><g clip-path="url(#C)" fill="#fff"><path d="M147.053 151.752c0 .093-.018.184-.054.27a.7.7 0 0 1-.152.228.71.71 0 0 1-.498.206.71.71 0 0 1-.27-.053c-.085-.036-.163-.087-.228-.153a.69.69 0 0 1-.153-.228c-.036-.086-.054-.177-.054-.27a.7.7 0 0 1 .702-.701.7.7 0 0 1 .701.701h.006zm-5.599 18.378c-.051.038-.115.056-.178.048s-.121-.04-.161-.09c-4.969-6.342-2.086-14.544 3.525-17.753.027-.024.059-.04.094-.05s.07-.011.106-.004.068.02.097.04.054.048.072.079.028.065.031.101-.002.071-.015.105-.032.064-.057.089-.057.044-.09.056c-5.391 3.09-8.137 10.965-3.382 17.04a.24.24 0 0 1 .043.084c.009.03.011.062.008.094s-.015.062-.03.09-.038.051-.063.071zm4.291-4.833a1 1 0 0 0 .706-.292c.188-.187.293-.441.293-.706s-.105-.519-.293-.706a1 1 0 0 0-1.412 0 1 1 0 0 0 0 1.412 1 1 0 0 0 .706.292zm9.777 0a1 1 0 0 0 .706-.292c.188-.187.293-.441.293-.706s-.105-.519-.293-.706a1 1 0 0 0-.706-.293c-.264 0-.518.106-.706.293a1 1 0 0 0 0 1.412 1 1 0 0 0 .706.292z"/><path fill-rule="evenodd" d="M136.198 166.142c-.086.061-.188.097-.294.104a.58.58 0 0 1-.306-.064c-.094-.049-.172-.124-.227-.214s-.083-.196-.082-.302v-5.682a.57.57 0 0 1 .084-.292c.054-.088.13-.161.221-.209a.57.57 0 0 1 .297-.067.57.57 0 0 1 .29.093 14.99 14.99 0 0 1 5.259-8.413 15 15 0 0 1 9.361-3.288c3.402-.002 6.705 1.153 9.364 3.276a15 15 0 0 1 5.27 8.407c.088-.053.188-.081.29-.083s.204.025.293.076a.58.58 0 0 1 .214.214c.051.089.077.19.076.292v5.676c.001.104-.026.207-.079.297s-.129.164-.221.214-.194.074-.299.07-.205-.037-.292-.093a15.02 15.02 0 0 1-2.968 6.08 15.03 15.03 0 0 1-5.335 4.16l-.006.101a3.37 3.37 0 0 0 1.034 1.052 5.39 5.39 0 0 0 2.05.583s-.945.475-2.098.368c-.725-.059-1.034.119-1.147.476l.078-1.171-.078 1.165-.309 4.767-.018.225v.06c-.023.148-.047.38.535.618.327.137.874.291 1.344.422l.867.291c0 .083-2.609 0-2.609 0-1.498 0-1.498-1.117-1.498-1.391s-.404-4.945-.404-4.945l-.136 6.033c0 .273.136.678 1.087.951 0 0 2.08.315 2.08.428 0 .119-2.49 0-2.49 0-1.89 0-1.89-1.106-1.89-1.106l-.41-4.945-.137 5.623c0 .535.095.939 1.581 1.212.285.084.69.167 1.07.25.577.119 1.094.238 1.094.297 0 .095-3.305 0-3.305 0-1.765-.136-1.932-1.367-1.932-1.367l-.671-2.454-.666 2.46s-.273 1.225-2.044 1.361h-2.996c0-.059.434-.166.951-.285l1.01-.262c1.035-.303 1.581-.677 1.581-1.212l-.136-5.623-.41 4.945s0 1.213-1.891 1.213c0 0-2.698.006-2.698-.107 0-.119 2.276-.428 2.276-.428.951-.273 1.088-.678 1.088-.951l-.131-6.033-.416 4.945c0 .274 0 1.498-1.486 1.498l-2.52-.214c0-.041.315-.119.72-.214l1.402-.392c.577-.238.553-.476.535-.618v-.06l-.333-4.939c-.113-.344-.416-.535-1.141-.475s-1.444-.071-2.104-.369a5.41 5.41 0 0 0 2.051-.576 2.42 2.42 0 0 0 .909-1.052l-.006-.238c-2.034-.975-3.822-2.395-5.231-4.156a15.02 15.02 0 0 1-2.912-6.013zm20.963 9.438l.066-1.236.285-5.789a4.18 4.18 0 0 0 2.27-3.617c.02-.751-.163-1.494-.529-2.15a4.19 4.19 0 0 0-1.551-1.579v-.078c0-3.792-2.9-7.084-6.983-7.084-4.09 0-6.8 3.417-6.8 7.078v.012c-.685.368-1.254.92-1.643 1.593s-.584 1.441-.562 2.218a4.2 4.2 0 0 0 .688 2.182 4.18 4.18 0 0 0 1.731 1.496l.19 6.877c-2.861-1.462-5.145-3.846-6.483-6.767a14.28 14.28 0 0 1 4.194-17.2c2.533-1.977 5.658-3.042 8.871-3.022s6.325 1.121 8.833 3.129 4.267 4.801 4.991 7.932a14.28 14.28 0 0 1-7.568 16.005zm-3.887-4.149c-.035 1.516-.671 3.751-2.633 3.751-2.021 0-2.52-2.526-2.52-3.887 0 0 .892 1.26 2.52 1.26s2.633-1.26 2.633-1.26v.136zm-7.37-3.31a3.28 3.28 0 0 0 2.329-.965 3.28 3.28 0 0 0 .964-2.328c0-.432-.085-.86-.251-1.26a3.3 3.3 0 0 0-1.782-1.782 3.3 3.3 0 0 0-1.26-.251 3.29 3.29 0 0 0-3.292 3.293 3.29 3.29 0 0 0 3.292 3.293zm9.688 0a3.28 3.28 0 0 0 2.329-.965 3.28 3.28 0 0 0 .964-2.328c0-.432-.085-.86-.251-1.26a3.3 3.3 0 0 0-1.782-1.782 3.3 3.3 0 0 0-1.26-.251 3.29 3.29 0 0 0-3.293 3.293 3.29 3.29 0 0 0 3.293 3.293z"/></g></g><path d="M174.921 161.4c-.985-.79-2.421-.068-2.421 1.216v17.498c0 1.463 1.795 2.105 2.677.957l4.19-5.453a1.66 1.66 0 0 1 .576-.474c.224-.112.47-.17.719-.17h6.852c1.428 0 2.049-1.859.921-2.761L174.921 161.4zM50.172 258.812c-5.136 0-8.784-3.864-8.784-8.712 0-4.824 3.648-8.688 8.784-8.688 3.576 0 6.672 2.136 7.8 5.232.096.36-.072.576-.432.576h-1.344c-.264 0-.456-.12-.6-.384-.888-1.968-3-3.264-5.424-3.264-3.912 0-6.552 2.856-6.552 6.528 0 3.696 2.64 6.552 6.552 6.552 2.424 0 4.536-1.296 5.424-3.264.144-.264.336-.408.6-.408h1.344c.36 0 .552.24.432.552-1.104 3.12-4.2 5.28-7.8 5.28zm15.354-12.48c.336-.024.528.168.528.504v1.128c0 .312-.144.504-.36.504-1.68.072-3.264 1.032-3.264 3.624v5.904c0 .336-.192.528-.504.528h-1.08c-.336 0-.504-.192-.504-.528v-10.968c0-.336.168-.504.504-.504h1.08c.312 0 .504.168.504.504v1.296c.72-1.32 1.848-1.872 3.096-1.992zm7.438-.12c3.624 0 5.88 2.952 5.88 6.336v.432c-.024.336-.24.48-.552.48h-1.56-7.824c.36 2.208 1.992 3.48 4.104 3.48 1.392 0 2.472-.6 3.024-1.44.168-.216.336-.336.624-.336h1.152c.384 0 .576.216.432.528-.84 1.896-2.808 3.12-5.256 3.12-3.744 0-6.24-2.688-6.24-6.312 0-3.528 2.472-6.288 6.216-6.288zm-4.056 5.424h7.824c-.312-2.352-1.968-3.48-3.768-3.48-2.232 0-3.744 1.392-4.056 3.48zm16.735-5.424c2.664 0 4.656 1.656 4.656 4.56v7.224c0 .336-.168.504-.504.504h-1.056c-.312 0-.504-.168-.504-.504v-.72c-.768 1.032-2.04 1.536-3.552 1.536-2.184 0-4.224-1.272-4.224-3.84s2.04-3.84 4.224-3.84c1.512 0 2.784.528 3.552 1.392v-1.704c0-1.896-1.2-2.64-2.592-2.64-1.248 0-2.328.576-2.544 1.704-.096.288-.24.456-.552.456H81.49c-.312 0-.528-.168-.504-.528.288-2.184 2.16-3.6 4.656-3.6zm-.36 10.848c1.728 0 2.952-.888 2.952-2.088 0-1.272-1.224-2.088-2.952-2.088-1.872 0-2.736.888-2.736 2.088s.864 2.088 2.736 2.088zm13.079-10.56c.336 0 .504.192.504.528v.984c0 .336-.168.504-.504.504h-1.848v9.48c0 .336-.168.504-.504.504h-1.08c-.312 0-.504-.168-.504-.504v-9.48h-1.848c-.336 0-.528-.168-.528-.504v-.984c0-.336.192-.528.528-.528h1.848v-3.312c0-.336.192-.528.504-.528h1.08c.336 0 .504.192.504.528v3.312h1.848zm7.649-.288c3.624 0 5.88 2.952 5.88 6.336v.432c-.024.336-.24.48-.552.48h-1.56-7.824c.36 2.208 1.992 3.48 4.104 3.48 1.392 0 2.472-.6 3.024-1.44.168-.216.336-.336.624-.336h1.152c.384 0 .576.216.432.528-.84 1.896-2.808 3.12-5.256 3.12-3.744 0-6.24-2.688-6.24-6.312 0-3.528 2.472-6.288 6.216-6.288zm-4.056 5.424h7.824c-.312-2.352-1.968-3.48-3.768-3.48-2.232 0-3.744 1.392-4.056 3.48zm31.543 6.24c.264.336.144.624-.288.624h-1.488c-.264 0-.48-.072-.648-.288l-5.256-6.12h-3.192v5.904c0 .336-.168.504-.504.504h-1.2c-.336 0-.504-.168-.504-.504v-15.768c0-.336.168-.528.504-.528h1.704 3.912c2.88 0 5.208 2.352 5.208 5.232 0 2.232-1.464 4.152-3.504 4.872l5.256 6.072zm-10.872-14.088v6.264h3.912c1.632 0 3-1.392 3-3.12 0-1.752-1.368-3.144-3-3.144h-3.912zm17.463 2.424c3.624 0 5.88 2.952 5.88 6.336v.432c-.024.336-.24.48-.552.48h-1.56-7.824c.36 2.208 1.992 3.48 4.104 3.48 1.392 0 2.472-.6 3.024-1.44.168-.216.336-.336.624-.336h1.152c.384 0 .576.216.432.528-.84 1.896-2.808 3.12-5.256 3.12-3.744 0-6.24-2.688-6.24-6.312 0-3.528 2.472-6.288 6.216-6.288zm-4.056 5.424h7.824c-.312-2.352-1.968-3.48-3.768-3.48-2.232 0-3.744 1.392-4.056 3.48zm12.751 6.864c-.336 0-.504-.168-.504-.504v-16.248c0-.336.168-.528.504-.528h1.08c.312 0 .504.192.504.528v16.248c0 .336-.192.504-.504.504h-1.08zm9.258-12.288c2.664 0 4.656 1.656 4.656 4.56v7.224c0 .336-.168.504-.504.504h-1.056c-.312 0-.504-.168-.504-.504v-.72c-.768 1.032-2.04 1.536-3.552 1.536-2.184 0-4.224-1.272-4.224-3.84s2.04-3.84 4.224-3.84c1.512 0 2.784.528 3.552 1.392v-1.704c0-1.896-1.2-2.64-2.592-2.64-1.248 0-2.328.576-2.544 1.704-.096.288-.24.456-.552.456h-1.056c-.312 0-.528-.168-.504-.528.288-2.184 2.16-3.6 4.656-3.6zm-.36 10.848c1.728 0 2.952-.888 2.952-2.088 0-1.272-1.224-2.088-2.952-2.088-1.872 0-2.736.888-2.736 2.088s.864 2.088 2.736 2.088zm13.079-10.56c.336 0 .504.192.504.528v.984c0 .336-.168.504-.504.504h-1.848v9.48c0 .336-.168.504-.504.504h-1.08c-.312 0-.504-.168-.504-.504v-9.48h-1.848c-.336 0-.528-.168-.528-.504v-.984c0-.336.192-.528.528-.528h1.848v-3.312c0-.336.192-.528.504-.528h1.08c.336 0 .504.192.504.528v3.312h1.848zm3.055-2.16c-.336 0-.504-.168-.504-.504v-1.608c0-.336.168-.528.504-.528h1.08c.312 0 .504.192.504.528v1.608c0 .336-.192.504-.504.504h-1.08zm0 14.16c-.336 0-.504-.168-.504-.504v-10.968c0-.336.168-.528.504-.528h1.08c.312 0 .504.192.504.528v10.968c0 .336-.192.504-.504.504h-1.08zm10.409.312c-3.528 0-6.336-2.736-6.336-6.312 0-3.552 2.808-6.288 6.336-6.288 3.504 0 6.312 2.736 6.312 6.288a6.24 6.24 0 0 1-6.312 6.312zm0-2.04c2.376 0 4.224-1.848 4.224-4.272s-1.848-4.272-4.224-4.272c-2.4 0-4.248 1.848-4.248 4.272s1.848 4.272 4.248 4.272zm14.438-10.56c2.232 0 4.008 1.68 4.008 4.512v7.272c0 .336-.168.504-.504.504h-1.056c-.336 0-.528-.168-.528-.504v-7.2c0-1.728-1.056-2.616-2.472-2.616-1.512 0-3 .912-3 3.504v6.312c0 .336-.192.504-.505.504h-1.079c-.336 0-.505-.168-.505-.504v-10.968c0-.336.169-.528.505-.528h1.079c.313 0 .505.192.505.528v.96c.864-1.296 2.088-1.776 3.552-1.776zm8.65 3.552c0 2.736 6.864.96 6.864 5.496 0 2.16-1.92 3.552-4.584 3.552-2.472 0-4.296-1.224-4.56-3.36-.024-.36.192-.528.504-.528h1.056c.312 0 .456.168.552.456.216 1.104 1.248 1.488 2.448 1.488 1.392 0 2.496-.48 2.496-1.608 0-2.736-6.864-.96-6.864-5.496 0-2.16 1.92-3.552 4.368-3.552 2.256 0 4.056 1.2 4.296 3.36.048.36-.168.528-.504.528h-1.056c-.288 0-.432-.168-.528-.48-.216-1.08-1.2-1.488-2.208-1.488-1.176 0-2.28.504-2.28 1.632zm15.115-3.552c2.232 0 4.008 1.68 4.008 4.512v7.272c0 .336-.168.504-.504.504h-1.056c-.336 0-.528-.168-.528-.504v-7.2c0-1.728-1.056-2.616-2.472-2.616-1.512 0-3 .912-3 3.504v6.312c0 .336-.192.504-.504.504h-1.08c-.336 0-.504-.168-.504-.504v-15.768c0-.336.168-.528.504-.528h1.08c.312 0 .504.192.504.528v5.76c.864-1.296 2.088-1.776 3.552-1.776zm7.427-1.872c-.336 0-.504-.168-.504-.504v-1.608c0-.336.168-.528.504-.528h1.08c.312 0 .504.192.504.528v1.608c0 .336-.192.504-.504.504h-1.08zm0 14.16c-.336 0-.504-.168-.504-.504v-10.968c0-.336.168-.528.504-.528h1.08c.312 0 .504.192.504.528v10.968c0 .336-.192.504-.504.504h-1.08zm11.393-12.288c3.312 0 6.072 2.736 6.072 6.288 0 3.576-2.76 6.312-6.072 6.312-2.04 0-3.576-.888-4.536-2.328v6.312c0 .336-.192.504-.504.504h-1.08c-.336 0-.504-.168-.504-.504v-15.768c0-.336.168-.528.504-.528h1.08c.312 0 .504.192.504.528v1.512c.96-1.44 2.496-2.328 4.536-2.328zm-.288 10.584c2.424 0 4.272-1.848 4.272-4.296s-1.848-4.296-4.272-4.296c-2.4 0-4.248 1.848-4.248 4.296s1.848 4.296 4.248 4.296zm10.462-7.032c0 2.736 6.864.96 6.864 5.496 0 2.16-1.92 3.552-4.584 3.552-2.472 0-4.296-1.224-4.56-3.36-.024-.36.192-.528.504-.528h1.056c.312 0 .456.168.552.456.216 1.104 1.248 1.488 2.448 1.488 1.392 0 2.496-.48 2.496-1.608 0-2.736-6.864-.96-6.864-5.496 0-2.16 1.92-3.552 4.368-3.552 2.256 0 4.056 1.2 4.296 3.36.048.36-.168.528-.504.528h-1.056c-.288 0-.432-.168-.528-.48-.216-1.08-1.2-1.488-2.208-1.488-1.176 0-2.28.504-2.28 1.632z" fill="#ebeff1"/><path d="M33.7 287.401c-1.098 0-1.967.367-2.605 1.101-.634.729-.95 1.729-.95 3.001 0 1.308.305 2.32.916 3.035s1.49 1.066 2.625 1.066c.697 0 1.492-.125 2.386-.375v1.018c-.693.26-1.547.39-2.563.39-1.472 0-2.609-.447-3.411-1.34s-1.196-2.163-1.196-3.808c0-1.03.191-1.932.574-2.707a4.17 4.17 0 0 1 1.668-1.791c.729-.419 1.586-.629 2.57-.629 1.048 0 1.964.192 2.748.575l-.492.998c-.757-.356-1.513-.534-2.27-.534zm10.849 5.346c0 1.221-.308 2.176-.923 2.864s-1.465 1.026-2.55 1.026c-.67 0-1.265-.158-1.784-.472s-.921-.766-1.203-1.353-.424-1.277-.424-2.065c0-1.221.305-2.171.916-2.851s1.458-1.025 2.543-1.025c1.048 0 1.88.349 2.495 1.046s.93 1.641.93 2.83zm-5.708 0c0 .957.191 1.686.574 2.188s.946.752 1.688.752 1.306-.249 1.689-.746.581-1.232.581-2.194c0-.952-.194-1.675-.581-2.167s-.95-.745-1.702-.745c-.743 0-1.303.244-1.682.731s-.567 1.215-.567 2.181zm12.831 3.753v-4.847c0-.61-.139-1.066-.417-1.367s-.713-.451-1.306-.451c-.784 0-1.358.212-1.723.636s-.547 1.123-.547 2.098v3.931h-1.135v-7.492h.923l.184 1.025h.055a2.29 2.29 0 0 1 .978-.854c.419-.205.886-.308 1.401-.308.902 0 1.581.219 2.037.656s.684 1.128.684 2.085v4.888h-1.135zm6.85-6.61h-1.907v6.61H55.48v-6.61h-1.34v-.513l1.34-.41v-.417c0-1.841.804-2.762 2.413-2.762.396 0 .861.08 1.395.239l-.294.91c-.437-.142-.811-.212-1.121-.212-.428 0-.745.143-.95.43s-.308.739-.308 1.367v.486h1.907v.882zm2.502 6.61h-1.135v-7.492h1.135v7.492zm-1.23-9.522c0-.26.064-.449.191-.568a.66.66 0 0 1 .478-.184.67.67 0 0 1 .472.184c.132.123.198.312.198.568s-.066.446-.198.574a.67.67 0 0 1-.472.184.66.66 0 0 1-.478-.184c-.128-.128-.191-.319-.191-.574zm9.768 2.03v.718l-1.388.164c.128.159.242.369.342.629s.15.544.15.868c0 .733-.251 1.319-.752 1.757s-1.19.656-2.065.656a3.39 3.39 0 0 1-.629-.055c-.483.255-.725.577-.725.964 0 .205.084.358.253.458s.458.144.868.144h1.326c.811 0 1.433.17 1.866.512s.656.839.656 1.49c0 .83-.333 1.461-.998 1.894s-1.636.656-2.912.656c-.98 0-1.736-.182-2.27-.547s-.793-.879-.793-1.545c0-.455.146-.849.438-1.182s.702-.558 1.23-.677c-.191-.086-.353-.221-.485-.403s-.191-.394-.191-.636c0-.273.073-.513.219-.718s.376-.403.691-.594c-.387-.16-.704-.431-.95-.814s-.362-.82-.362-1.312c0-.821.246-1.452.738-1.894s1.189-.67 2.092-.67a3.81 3.81 0 0 1 1.06.137h2.591zm-5.975 8.75c0 .405.171.713.513.923s.832.314 1.47.314c.953 0 1.657-.143 2.112-.431.46-.282.691-.667.691-1.155 0-.405-.125-.688-.376-.847s-.722-.233-1.415-.233h-1.36c-.515 0-.916.123-1.203.369s-.431.6-.431 1.06zm.615-6.351c0 .524.148.921.444 1.19s.709.403 1.237.403c1.107 0 1.661-.538 1.661-1.613 0-1.126-.561-1.689-1.682-1.689-.533 0-.943.144-1.23.431s-.431.713-.431 1.278zm7.964-2.399v4.86c0 .611.139 1.067.417 1.367s.713.452 1.306.452c.784 0 1.356-.215 1.716-.643s.547-1.128.547-2.099v-3.937h1.135v7.492h-.937l-.164-1.005h-.062a2.26 2.26 0 0 1-.971.848c-.41.196-.88.294-1.408.294-.911 0-1.595-.217-2.051-.65s-.677-1.125-.677-2.078v-4.901h1.148zm10.951-.137c.333 0 .631.027.895.082l-.157 1.053c-.31-.068-.583-.103-.82-.103-.606 0-1.126.246-1.559.739s-.643 1.105-.643 1.838v4.02h-1.135v-7.492h.936l.13 1.388h.055c.278-.488.613-.864 1.005-1.128s.823-.397 1.292-.397zm5.462 7.766c-1.107 0-1.982-.338-2.625-1.012s-.957-1.611-.957-2.81c0-1.207.296-2.167.889-2.877s1.397-1.067 2.4-1.067c.939 0 1.682.31 2.228.93s.82 1.428.82 2.44v.718h-5.161c.023.88.244 1.547.663 2.003s1.019.684 1.784.684c.807 0 1.604-.169 2.393-.506v1.011c-.401.174-.782.297-1.142.37s-.786.116-1.292.116zm-.308-6.816c-.602 0-1.082.196-1.442.588s-.565.934-.629 1.627h3.917c0-.715-.159-1.262-.478-1.64-.319-.383-.775-.575-1.367-.575zm9.775 6.679h-1.135v-7.492h1.135v7.492zm-1.23-9.522c0-.26.064-.449.191-.568a.66.66 0 0 1 .478-.184.67.67 0 0 1 .472.184c.132.123.198.312.198.568s-.066.446-.198.574a.67.67 0 0 1-.472.184.66.66 0 0 1-.478-.184c-.128-.128-.191-.319-.191-.574zm8.764 9.522v-4.847c0-.61-.139-1.066-.417-1.367s-.713-.451-1.306-.451c-.783 0-1.358.212-1.722.636s-.547 1.123-.547 2.098v3.931h-1.135v-7.492h.923l.185 1.025h.054c.233-.369.559-.654.978-.854s.886-.308 1.401-.308c.902 0 1.582.219 2.037.656s.684 1.128.684 2.085v4.888h-1.135zm6.85-6.61h-1.908v6.61h-1.134v-6.61h-1.34v-.513l1.34-.41v-.417c0-1.841.804-2.762 2.413-2.762.396 0 .861.08 1.394.239l-.294.91c-.437-.142-.811-.212-1.121-.212-.428 0-.745.143-.95.43s-.308.739-.308 1.367v.486h1.908v.882zm4.785-1.019c.333 0 .631.027.895.082l-.157 1.053a3.89 3.89 0 0 0-.82-.103c-.606 0-1.126.246-1.559.739-.428.492-.642 1.105-.642 1.838v4.02h-1.135v-7.492h.936l.13 1.388h.055c.278-.488.613-.864 1.005-1.128s.822-.397 1.292-.397zm6.904 7.629l-.225-1.066h-.055c-.374.469-.748.788-1.121.957-.369.164-.832.246-1.388.246-.743 0-1.326-.192-1.75-.575-.419-.382-.629-.927-.629-1.633 0-1.513 1.21-2.306 3.63-2.379l1.272-.041v-.465c0-.588-.128-1.021-.383-1.299s-.654-.424-1.21-.424c-.625 0-1.331.192-2.119.575l-.349-.869a5.36 5.36 0 0 1 1.21-.471 5.29 5.29 0 0 1 1.326-.171c.893 0 1.554.198 1.983.594s.649 1.033.649 1.908v5.113h-.841zm-2.563-.8c.706 0 1.26-.193 1.661-.581s.608-.93.608-1.627v-.677l-1.135.048c-.902.032-1.554.173-1.955.424s-.594.631-.594 1.155c0 .411.123.723.369.937s.599.321 1.046.321zm10.582-1.244c0 .697-.26 1.235-.78 1.613s-1.248.568-2.187.568c-.994 0-1.768-.158-2.324-.472v-1.053a5.61 5.61 0 0 0 1.155.431c.415.105.813.157 1.196.157.593 0 1.048-.093 1.367-.28s.479-.481.479-.868c0-.292-.128-.54-.383-.745-.251-.21-.743-.456-1.476-.739-.698-.259-1.194-.485-1.491-.676-.291-.196-.51-.417-.656-.663a1.75 1.75 0 0 1-.212-.882 1.67 1.67 0 0 1 .745-1.443c.497-.355 1.178-.533 2.044-.533a5.98 5.98 0 0 1 2.365.492l-.403.923c-.752-.31-1.433-.465-2.044-.465-.538 0-.943.085-1.217.253s-.41.401-.41.697c0 .201.05.372.151.513s.271.276.499.404.665.312 1.312.553c.889.324 1.488.65 1.798.978s.472.74.472 1.237zm4.272 1.244c.201 0 .394-.013.581-.041l.445-.096v.869c-.124.059-.306.107-.547.143s-.451.062-.643.062c-1.449 0-2.174-.764-2.174-2.29v-4.457h-1.073v-.547l1.073-.472.479-1.6h.656v1.737h2.174v.882h-2.174v4.409c0 .451.107.797.321 1.039s.508.362.882.362zm5.947-6.829c.333 0 .632.027.896.082l-.157 1.053a3.9 3.9 0 0 0-.821-.103c-.606 0-1.125.246-1.558.739s-.643 1.105-.643 1.838v4.02h-1.135v-7.492h.937l.13 1.388h.055c.278-.488.613-.864 1.004-1.128a2.26 2.26 0 0 1 1.292-.397zm3.364.137v4.86c0 .611.139 1.067.417 1.367s.713.452 1.305.452c.784 0 1.356-.215 1.716-.643.365-.428.547-1.128.547-2.099v-3.937h1.135v7.492h-.937l-.164-1.005h-.061c-.233.369-.556.652-.971.848s-.88.294-1.408.294c-.912 0-1.595-.217-2.051-.65-.451-.433-.677-1.125-.677-2.078v-4.901h1.149zm10.527 7.629c-1.085 0-1.925-.333-2.522-.998-.593-.67-.889-1.616-.889-2.837 0-1.253.301-2.222.902-2.906s1.468-1.025 2.584-1.025a5.15 5.15 0 0 1 1.08.116c.36.078.643.169.848.274l-.349.964a4.93 4.93 0 0 0-.82-.246c-.296-.069-.558-.103-.786-.103-1.522 0-2.283.971-2.283 2.912 0 .921.184 1.627.553 2.119s.926.739 1.655.739c.624 0 1.264-.135 1.921-.404v1.005c-.502.26-1.133.39-1.894.39zm6.098-.937c.2 0 .394-.013.581-.041l.444-.096v.869c-.123.059-.305.107-.547.143s-.451.062-.642.062c-1.45 0-2.174-.764-2.174-2.29v-4.457h-1.073v-.547l1.073-.472.478-1.6h.657v1.737h2.173v.882h-2.173v4.409c0 .451.107.797.321 1.039s.508.362.882.362zm3.595-6.692v4.86c0 .611.139 1.067.417 1.367s.714.452 1.306.452c.784 0 1.356-.215 1.716-.643s.547-1.128.547-2.099v-3.937h1.135v7.492h-.937l-.164-1.005h-.062a2.26 2.26 0 0 1-.97.848c-.41.196-.88.294-1.408.294-.912 0-1.596-.217-2.051-.65s-.677-1.125-.677-2.078v-4.901h1.148zm10.952-.137c.332 0 .631.027.895.082l-.157 1.053a3.89 3.89 0 0 0-.82-.103c-.607 0-1.126.246-1.559.739s-.643 1.105-.643 1.838v4.02h-1.134v-7.492h.936l.13 1.388h.055c.278-.488.613-.864 1.005-1.128s.822-.397 1.292-.397zm5.461 7.766c-1.107 0-1.982-.338-2.625-1.012s-.957-1.611-.957-2.81c0-1.207.297-2.167.889-2.877s1.397-1.067 2.4-1.067c.938 0 1.681.31 2.228.93s.82 1.428.82 2.44v.718h-5.161c.023.88.244 1.547.663 2.003.424.456 1.019.684 1.785.684.806 0 1.604-.169 2.392-.506v1.011a5.74 5.74 0 0 1-1.142.37c-.355.077-.786.116-1.292.116zm-.307-6.816c-.602 0-1.082.196-1.443.588-.355.392-.565.934-.628 1.627h3.917c0-.715-.16-1.262-.479-1.64-.319-.383-.775-.575-1.367-.575zm9.775 6.679h-1.134v-7.492h1.134v7.492zm-1.23-9.522c0-.26.064-.449.191-.568s.287-.184.479-.184c.182 0 .339.061.471.184s.199.312.199.568-.066.446-.199.574c-.132.123-.289.184-.471.184-.192 0-.351-.061-.479-.184-.127-.128-.191-.319-.191-.574zm8.763 9.522v-4.847c0-.61-.139-1.066-.417-1.367s-.713-.451-1.305-.451c-.784 0-1.358.212-1.723.636s-.547 1.123-.547 2.098v3.931h-1.134v-7.492h.922l.185 1.025h.055c.232-.369.558-.654.977-.854a3.15 3.15 0 0 1 1.402-.308c.902 0 1.581.219 2.037.656s.683 1.128.683 2.085v4.888h-1.135zm5.893-.8c.201 0 .394-.013.581-.041l.444-.096v.869c-.123.059-.305.107-.546.143s-.452.062-.643.062c-1.449 0-2.174-.764-2.174-2.29v-4.457h-1.073v-.547l1.073-.472.479-1.6h.656v1.737h2.174v.882h-2.174v4.409c0 .451.107.797.321 1.039s.508.362.882.362zm3.596-6.692v4.86c0 .611.139 1.067.417 1.367s.713.452 1.305.452c.784 0 1.356-.215 1.716-.643s.547-1.128.547-2.099v-3.937h1.135v7.492h-.937l-.164-1.005h-.061c-.233.369-.556.652-.971.848-.41.196-.88.294-1.408.294-.912 0-1.595-.217-2.051-.65s-.677-1.125-.677-2.078v-4.901h1.149zm8.668 7.492h-1.135v-7.492h1.135v7.492zm-1.231-9.522c0-.26.064-.449.192-.568a.66.66 0 0 1 .478-.184.67.67 0 0 1 .472.184c.132.123.198.312.198.568s-.066.446-.198.574a.67.67 0 0 1-.472.184.66.66 0 0 1-.478-.184c-.128-.128-.192-.319-.192-.574zm6.057 8.722c.2 0 .394-.013.581-.041l.444-.096v.869c-.123.059-.305.107-.547.143s-.451.062-.642.062c-1.449 0-2.174-.764-2.174-2.29v-4.457h-1.073v-.547l1.073-.472.479-1.6h.656v1.737h2.174v.882h-2.174v4.409c0 .451.107.797.321 1.039s.508.362.882.362zm3.664.8h-1.135v-7.492h1.135v7.492zm-1.231-9.522c0-.26.064-.449.192-.568a.66.66 0 0 1 .478-.184c.183 0 .34.061.472.184s.198.312.198.568-.066.446-.198.574c-.132.123-.289.184-.472.184a.66.66 0 0 1-.478-.184c-.128-.128-.192-.319-.192-.574zm5.278 9.522l-2.844-7.492h1.217l1.613 4.443.643 2.024h.054c.051-.242.208-.741.472-1.497l1.798-4.97h1.217l-2.844 7.492h-1.326zm8.538.137c-1.108 0-1.983-.338-2.625-1.012s-.957-1.611-.957-2.81c0-1.207.296-2.167.889-2.877s1.396-1.067 2.399-1.067c.939 0 1.682.31 2.228.93s.821 1.428.821 2.44v.718h-5.161c.022.88.243 1.547.663 2.003s1.018.684 1.784.684c.807 0 1.604-.169 2.393-.506v1.011c-.402.174-.782.297-1.142.37a6.2 6.2 0 0 1-1.292.116zm-.308-6.816c-.601 0-1.082.196-1.442.588s-.565.934-.629 1.627h3.917c0-.715-.16-1.262-.479-1.64-.319-.383-.774-.575-1.367-.575zm6.139 6.679h-1.135v-10.637h1.135V296.5zm1.217-7.492h1.217l1.64 4.272.67 2.113h.055c.059-.233.182-.629.369-1.19l1.859-5.195h1.217l-3.22 8.531c-.319.843-.692 1.44-1.121 1.791s-.945.533-1.565.533c-.346 0-.688-.038-1.026-.116v-.909a3.94 3.94 0 0 0 .841.082c.78 0 1.336-.438 1.668-1.313l.417-1.066-3.021-7.533zm15.367-.123c.984 0 1.748.337 2.29 1.011.547.67.82 1.621.82 2.851s-.275 2.188-.827 2.871-1.308 1.019-2.283 1.019c-.488 0-.934-.089-1.34-.267-.401-.182-.738-.46-1.012-.834h-.082l-.239.964h-.813v-10.637h1.134v2.584l-.054 1.559h.054c.529-.748 1.313-1.121 2.352-1.121zm-.164.95c-.775 0-1.333.223-1.675.67s-.513 1.189-.513 2.242.176 1.807.527 2.263.913.677 1.688.677c.697 0 1.217-.253 1.559-.759s.513-1.242.513-2.195c0-.975-.171-1.702-.513-2.18s-.871-.718-1.586-.718zm4.074-.827h1.217l1.641 4.272.669 2.113h.055c.059-.233.182-.629.369-1.19l1.86-5.195h1.216l-3.219 8.531c-.319.843-.693 1.44-1.121 1.791s-.946.533-1.566.533a4.53 4.53 0 0 1-1.025-.116v-.909c.25.055.531.082.841.082.779 0 1.335-.438 1.668-1.313l.417-1.066-3.022-7.533zM83.227 319.7a3.92 3.92 0 0 0 .581-.041l.444-.096v.869c-.123.059-.305.107-.547.143s-.451.062-.643.062c-1.449 0-2.174-.764-2.174-2.29v-4.457h-1.073v-.547l1.073-.472.478-1.6h.656v1.737h2.174v.882h-2.174v4.409c0 .451.107.797.321 1.039s.508.362.882.362zm7.656.8v-4.847c0-.61-.139-1.066-.417-1.367s-.713-.451-1.306-.451c-.788 0-1.365.214-1.73.643s-.54 1.13-.54 2.105v3.917h-1.135v-10.637h1.135v3.22c0 .387-.018.709-.055.964h.068c.223-.36.54-.643.95-.848s.886-.314 1.415-.314c.916 0 1.602.219 2.058.656s.691 1.123.691 2.071v4.888h-1.135zm6.891-7.629c.333 0 .631.027.895.082l-.157 1.053c-.31-.068-.583-.103-.82-.103-.606 0-1.126.246-1.559.739s-.643 1.105-.643 1.838v4.02h-1.135v-7.492h.936l.13 1.388h.055c.278-.488.613-.864 1.005-1.128s.823-.397 1.292-.397zm8.764 3.876c0 1.221-.308 2.176-.923 2.864s-1.465 1.026-2.55 1.026c-.669 0-1.264-.158-1.784-.472s-.92-.766-1.203-1.353-.424-1.277-.424-2.065c0-1.221.305-2.171.916-2.851s1.459-1.025 2.543-1.025c1.048 0 1.88.349 2.495 1.046.62.697.93 1.641.93 2.83zm-5.708 0c0 .957.192 1.686.574 2.188s.946.752 1.689.752 1.305-.249 1.688-.746c.388-.501.581-1.232.581-2.194 0-.952-.193-1.675-.581-2.167-.383-.497-.95-.745-1.702-.745-.743 0-1.303.244-1.682.731s-.567 1.215-.567 2.181zm8.771-3.739v4.86c0 .611.139 1.067.417 1.367s.713.452 1.305.452c.784 0 1.356-.215 1.716-.643.365-.428.547-1.128.547-2.099v-3.937h1.135v7.492h-.937l-.164-1.005h-.061c-.233.369-.556.652-.971.848s-.88.294-1.408.294c-.912 0-1.595-.217-2.051-.65-.451-.433-.677-1.125-.677-2.078v-4.901h1.149zm13.665 0v.718l-1.388.164c.128.159.241.369.342.629s.15.544.15.868c0 .733-.251 1.319-.752 1.757s-1.189.656-2.064.656c-.224 0-.433-.018-.629-.055-.483.255-.725.577-.725.964 0 .205.085.358.253.458s.458.144.868.144h1.326c.812 0 1.434.17 1.867.512s.656.839.656 1.49c0 .83-.333 1.461-.998 1.894s-1.636.656-2.912.656c-.98 0-1.737-.182-2.27-.547s-.793-.879-.793-1.545c0-.455.146-.849.438-1.182s.702-.558 1.23-.677a1.21 1.21 0 0 1-.485-.403 1.08 1.08 0 0 1-.191-.636c0-.273.072-.513.218-.718s.376-.403.691-.594c-.388-.16-.704-.431-.951-.814a2.41 2.41 0 0 1-.362-1.312c0-.821.246-1.452.738-1.894s1.19-.67 2.092-.67c.392 0 .745.046 1.06.137h2.591zm-5.975 8.75c0 .405.171.713.513.923s.831.314 1.469.314c.953 0 1.657-.143 2.113-.431.46-.282.69-.667.69-1.155 0-.405-.125-.688-.376-.847s-.722-.233-1.415-.233h-1.36c-.515 0-.916.123-1.203.369s-.431.6-.431 1.06zm.615-6.351c0 .524.148.921.445 1.19s.708.403 1.237.403c1.107 0 1.661-.538 1.661-1.613 0-1.126-.56-1.689-1.682-1.689-.533 0-.943.144-1.23.431s-.431.713-.431 1.278zm12.025 5.093v-4.847c0-.61-.139-1.066-.417-1.367s-.714-.451-1.306-.451c-.788 0-1.365.214-1.729.643s-.54 1.13-.54 2.105v3.917h-1.135v-10.637h1.135v3.22c0 .387-.019.709-.055.964h.068c.223-.36.54-.643.95-.848.415-.209.887-.314 1.415-.314.916 0 1.602.219 2.058.656s.69 1.123.69 2.071v4.888h-1.134zm10.527-7.629c.333 0 .631.027.896.082l-.158 1.053a3.89 3.89 0 0 0-.82-.103c-.606 0-1.126.246-1.559.739s-.642 1.105-.642 1.838v4.02h-1.135v-7.492h.937l.129 1.388h.055c.278-.488.613-.864 1.005-1.128a2.26 2.26 0 0 1 1.292-.397zm5.462 7.766c-1.107 0-1.982-.338-2.625-1.012s-.957-1.611-.957-2.81c0-1.207.296-2.167.889-2.877s1.396-1.067 2.399-1.067c.939 0 1.682.31 2.229.93s.82 1.428.82 2.44v.718h-5.161c.022.88.244 1.547.663 2.003.424.456 1.018.684 1.784.684.807 0 1.604-.169 2.393-.506v1.011c-.402.174-.782.297-1.142.37a6.2 6.2 0 0 1-1.292.116zm-.308-6.816c-.601 0-1.082.196-1.442.588s-.565.934-.629 1.627h3.917c0-.715-.159-1.262-.478-1.64-.319-.383-.775-.575-1.368-.575zm6.139 6.679h-1.135v-10.637h1.135V320.5zm7.014 0l-.226-1.066h-.055c-.373.469-.747.788-1.121.957-.369.164-.831.246-1.387.246-.743 0-1.327-.192-1.75-.575s-.629-.927-.629-1.633c0-1.513 1.21-2.306 3.63-2.379l1.271-.041v-.465c0-.588-.128-1.021-.383-1.299s-.654-.424-1.21-.424c-.624 0-1.33.192-2.119.575l-.348-.869a5.37 5.37 0 0 1 1.209-.471c.443-.114.885-.171 1.327-.171.893 0 1.554.198 1.982.594s.649 1.033.649 1.908v5.113h-.84zm-2.564-.8c.707 0 1.26-.193 1.661-.581.406-.387.609-.93.609-1.627v-.677l-1.135.048c-.902.032-1.554.173-1.955.424s-.595.631-.595 1.155c0 .411.123.723.369.937s.6.321 1.046.321zm8.169 0c.201 0 .394-.013.581-.041l.445-.096v.869c-.124.059-.306.107-.547.143s-.452.062-.643.062c-1.449 0-2.174-.764-2.174-2.29v-4.457h-1.073v-.547l1.073-.472.479-1.6h.656v1.737h2.174v.882h-2.174v4.409c0 .451.107.797.321 1.039s.508.362.882.362zm3.664.8h-1.135v-7.492h1.135v7.492zm-1.23-9.522c0-.26.064-.449.191-.568s.287-.184.479-.184c.182 0 .339.061.471.184s.199.312.199.568-.067.446-.199.574c-.132.123-.289.184-.471.184-.192 0-.351-.061-.479-.184-.127-.128-.191-.319-.191-.574zm10.103 5.769c0 1.221-.307 2.176-.923 2.864s-1.465 1.026-2.549 1.026c-.67 0-1.265-.158-1.785-.472s-.92-.766-1.203-1.353-.424-1.277-.424-2.065c0-1.221.306-2.171.916-2.851s1.459-1.025 2.543-1.025c1.049 0 1.88.349 2.496 1.046s.929 1.641.929 2.83zm-5.708 0c0 .957.192 1.686.574 2.188s.946.752 1.689.752 1.306-.249 1.688-.746c.388-.501.581-1.232.581-2.194 0-.952-.193-1.675-.581-2.167-.382-.497-.95-.745-1.702-.745-.743 0-1.303.244-1.681.731s-.568 1.215-.568 2.181zm12.831 3.753v-4.847c0-.61-.139-1.066-.417-1.367s-.713-.451-1.305-.451c-.784 0-1.358.212-1.723.636s-.547 1.123-.547 2.098v3.931h-1.135v-7.492h.923l.185 1.025h.054c.233-.369.559-.654.978-.854s.886-.308 1.401-.308c.903 0 1.582.219 2.037.656s.684 1.128.684 2.085v4.888h-1.135zm8.306-2.044c0 .697-.26 1.235-.779 1.613s-1.249.568-2.188.568c-.993 0-1.768-.158-2.324-.472v-1.053a5.61 5.61 0 0 0 1.155.431c.415.105.814.157 1.197.157.592 0 1.048-.093 1.367-.28s.478-.481.478-.868c0-.292-.127-.54-.383-.745-.25-.21-.742-.456-1.476-.739-.697-.259-1.194-.485-1.49-.676s-.511-.417-.657-.663a1.75 1.75 0 0 1-.212-.882 1.67 1.67 0 0 1 .746-1.443c.496-.355 1.178-.533 2.043-.533.807 0 1.596.164 2.366.492l-.404.923c-.752-.31-1.433-.465-2.044-.465-.537 0-.943.085-1.216.253s-.41.401-.41.697c0 .201.05.372.15.513.105.141.271.276.499.404s.665.312 1.312.553c.889.324 1.488.65 1.798.978s.472.74.472 1.237zm6.979 2.044v-4.847c0-.61-.139-1.066-.417-1.367s-.713-.451-1.305-.451c-.789 0-1.365.214-1.73.643-.36.428-.54 1.13-.54 2.105v3.917h-1.134v-10.637h1.134v3.22c0 .387-.018.709-.054.964h.068c.223-.36.54-.643.95-.848s.887-.314 1.415-.314c.916 0 1.602.219 2.058.656s.69 1.123.69 2.071v4.888h-1.135zm4.608 0h-1.135v-7.492h1.135v7.492zm-1.231-9.522c0-.26.064-.449.192-.568a.66.66 0 0 1 .478-.184c.183 0 .34.061.472.184s.198.312.198.568-.066.446-.198.574c-.132.123-.289.184-.472.184a.66.66 0 0 1-.478-.184c-.128-.128-.192-.319-.192-.574zm7.123 9.659c-.487 0-.934-.089-1.339-.267a2.54 2.54 0 0 1-1.012-.834h-.082a9.99 9.99 0 0 1 .082 1.244v3.083h-1.135v-10.855h.923l.157 1.025h.055c.292-.41.631-.706 1.018-.888s.832-.274 1.333-.274c.994 0 1.76.34 2.297 1.019.543.679.814 1.631.814 2.857s-.276 2.188-.827 2.871-1.308 1.019-2.284 1.019zm-.164-6.802c-.765 0-1.319.212-1.661.636s-.517 1.098-.526 2.023v.253c0 1.053.175 1.807.526 2.263s.914.677 1.689.677c.647 0 1.153-.263 1.517-.787s.554-1.246.554-2.167c0-.934-.185-1.649-.554-2.146s-.879-.752-1.545-.752zm10.097 4.621c0 .697-.26 1.235-.779 1.613s-1.249.568-2.188.568c-.993 0-1.768-.158-2.324-.472v-1.053a5.61 5.61 0 0 0 1.155.431c.415.105.814.157 1.197.157.592 0 1.048-.093 1.367-.28s.478-.481.478-.868c0-.292-.127-.54-.382-.745-.251-.21-.743-.456-1.477-.739-.697-.259-1.194-.485-1.49-.676s-.511-.417-.657-.663a1.75 1.75 0 0 1-.211-.882 1.67 1.67 0 0 1 .745-1.443c.496-.355 1.178-.533 2.044-.533.806 0 1.595.164 2.365.492l-.403.923c-.752-.31-1.434-.465-2.044-.465-.538 0-.944.085-1.217.253s-.41.401-.41.697c0 .201.05.372.15.513s.271.276.499.404.665.312 1.313.553c.888.324 1.487.65 1.797.978s.472.74.472 1.237z" fill="#ccc"/><rect x="230" y="321" width="59" height="32" rx="16" fill="#000" fill-opacity=".6"/><path d="M247.312 343c-.208 0-.32-.112-.32-.32v-.464c0-.16.048-.272.16-.384l3.872-3.904c.944-.944 1.728-1.92 1.728-2.96 0-1.52-1.104-2.272-2.256-2.272-1.2 0-2.24.576-2.368 1.952-.016.208-.144.32-.336.32h-.48c-.208 0-.32-.112-.304-.336.16-2.048 1.792-3.024 3.488-3.024 1.664 0 3.376 1.168 3.376 3.36 0 1.424-.944 2.624-2.08 3.76l-3.2 3.184h5.2c.208 0 .32.112.32.32v.448c0 .208-.112.32-.32.32h-6.48zm9.178 1.6h-.256c-.192 0-.288-.112-.208-.304l6.192-13.904c.064-.144.144-.192.288-.192h.256c.192 0 .288.112.208.304l-6.192 13.904c-.064.144-.144.192-.288.192zm8.712-1.6c-.208 0-.32-.112-.32-.32v-.464c0-.16.048-.272.16-.384l3.872-3.904c.944-.944 1.728-1.92 1.728-2.96 0-1.52-1.104-2.272-2.256-2.272-1.2 0-2.24.576-2.368 1.952-.016.208-.144.32-.336.32h-.48c-.208 0-.32-.112-.304-.336.16-2.048 1.792-3.024 3.488-3.024 1.664 0 3.376 1.168 3.376 3.36 0 1.424-.944 2.624-2.08 3.76l-3.2 3.184h5.2c.208 0 .32.112.32.32v.448c0 .208-.112.32-.32.32h-6.48z" fill="#fff" fill-opacity=".5"/><defs><linearGradient id="A" x1="150" y1="-24.3" x2="150" y2="360" gradientUnits="userSpaceOnUse"><stop stop-color="#00b39f"/><stop offset="1" stop-color="#00b39f" stop-opacity="0"/></linearGradient><clipPath id="B"><path fill="#fff" transform="translate(118 135)" d="M0 0h64v64H0z"/></clipPath><clipPath id="C"><path fill="#fff" transform="translate(130.801 147.8)" d="M0 0h40v40H0z"/></clipPath></defs></svg>